<?xml version="1.0" encoding="UTF-8" standalone="no"?>
<svg
   xmlns:dc="http://purl.org/dc/elements/1.1/"
   xmlns:cc="http://creativecommons.org/ns#"
   xmlns:rdf="http://www.w3.org/1999/02/22-rdf-syntax-ns#"
   xmlns:svg="http://www.w3.org/2000/svg"
   xmlns="http://www.w3.org/2000/svg"
   xmlns:sodipodi="http://sodipodi.sourceforge.net/DTD/sodipodi-0.dtd"
   xmlns:inkscape="http://www.inkscape.org/namespaces/inkscape"
   stroke-miterlimit="2"
   viewBox="0 0 360 97.365997"
   version="1.1"
   id="svg21"
   sodipodi:docname="github.svg"
   width="360"
   height="97.365997"
   style="clip-rule:evenodd;fill-rule:evenodd;stroke-linejoin:round;stroke-miterlimit:2"
   inkscape:version="0.92.5 (2060ec1f9f, 2020-04-08)">
  <metadata
     id="metadata27">
    <rdf:RDF>
      <cc:Work
         rdf:about="">
        <dc:format>image/svg+xml</dc:format>
        <dc:type
           rdf:resource="http://purl.org/dc/dcmitype/StillImage" />
        <dc:title></dc:title>
      </cc:Work>
    </rdf:RDF>
  </metadata>
  <defs
     id="defs25" />
  <sodipodi:namedview
     pagecolor="#ffffff"
     bordercolor="#666666"
     borderopacity="1"
     objecttolerance="10"
     gridtolerance="10"
     guidetolerance="10"
     inkscape:pageopacity="0"
     inkscape:pageshadow="2"
     inkscape:window-width="1920"
     inkscape:window-height="1016"
     id="namedview23"
     showgrid="false"
     inkscape:zoom="0.59"
     inkscape:cx="180.016"
     inkscape:cy="48.683"
     inkscape:window-x="0"
     inkscape:window-y="27"
     inkscape:window-maximized="1"
     inkscape:current-layer="svg21" />
  <clipPath
     id="a">
    <path
       d="m 99.984,151.317 h 360 v 97.366 h -360 z"
       id="path2"
       inkscape:connector-curvature="0"
       style="clip-rule:evenodd" />
  </clipPath>
  <g
     clip-path="url(#a)"
     id="g19"
     style="fill:#161312;fill-rule:nonzero"
     transform="translate(-99.984,-151.317)">
    <path
       d="m 169.328,192.99 h -30.255 c -0.781,0 -1.414,0.634 -1.414,1.415 v 14.792 c 0,0.78 0.633,1.416 1.414,1.416 h 11.802 v 18.377 c 0,0 -2.65,0.903 -9.976,0.903 -8.644,0 -20.719,-3.158 -20.719,-29.711 0,-26.558 12.573,-30.052 24.378,-30.052 10.218,0 14.62,1.799 17.421,2.666 0.88,0.27 1.694,-0.607 1.694,-1.388 l 3.375,-14.292 c 0,-0.365 -0.123,-0.805 -0.54,-1.104 -1.138,-0.811 -8.078,-4.695 -25.609,-4.695 -20.198,0 -40.915,8.593 -40.915,49.901 0,41.309 23.719,47.465 43.708,47.465 16.55,0 26.59,-7.073 26.59,-7.073 0.414,-0.228 0.458,-0.807 0.458,-1.072 v -46.133 c 0,-0.781 -0.632,-1.415 -1.412,-1.415"
       id="path5"
       inkscape:connector-curvature="0" />
    <path
       d="m 325.246,156.267 c 0,-0.788 -0.624,-1.423 -1.404,-1.423 h -17.035 c -0.779,0 -1.411,0.635 -1.411,1.423 0,0.003 0.004,32.92 0.004,32.92 h -26.553 v -32.92 c 0,-0.788 -0.627,-1.423 -1.406,-1.423 h -17.034 c -0.775,0 -1.407,0.635 -1.407,1.423 v 89.14 c 0,0.786 0.632,1.426 1.407,1.426 h 17.034 c 0.779,0 1.406,-0.64 1.406,-1.426 V 207.278 H 305.4 c 0,0 -0.046,38.126 -0.046,38.129 0,0.786 0.632,1.426 1.411,1.426 h 17.075 c 0.781,0 1.404,-0.64 1.406,-1.426 z"
       id="path7"
       inkscape:connector-curvature="0" />
    <path
       d="m 201.473,167.964 c 0,-6.134 -4.918,-11.091 -10.985,-11.091 -6.061,0 -10.983,4.957 -10.983,11.091 0,6.128 4.922,11.098 10.983,11.098 6.067,0 10.985,-4.97 10.985,-11.098"
       id="path9"
       inkscape:connector-curvature="0" />
    <path
       d="m 200.255,226.603 v -41.147 c 0,-0.782 -0.631,-1.42 -1.409,-1.42 h -16.982 c -0.779,0 -1.476,0.803 -1.476,1.584 v 58.952 c 0,1.733 1.08,2.248 2.477,2.248 h 15.3 c 1.678,0 2.09,-0.824 2.09,-2.275 z"
       id="path11"
       inkscape:connector-curvature="0" />
    <path
       d="m 389.987,184.17 h -16.905 c -0.775,0 -1.406,0.639 -1.406,1.425 v 43.708 c 0,0 -4.295,3.142 -10.39,3.142 -6.095,0 -7.713,-2.765 -7.713,-8.734 v -38.116 c 0,-0.786 -0.63,-1.425 -1.406,-1.425 h -17.156 c -0.775,0 -1.409,0.639 -1.409,1.425 v 41.003 c 0,17.727 9.88,22.064 23.472,22.064 11.15,0 20.14,-6.16 20.14,-6.16 0,0 0.428,3.246 0.622,3.631 0.194,0.384 0.698,0.772 1.243,0.772 l 10.915,-0.048 c 0.775,0 1.409,-0.641 1.409,-1.423 l -0.005,-59.839 c 0,-0.786 -0.632,-1.425 -1.411,-1.425"
       id="path13"
       inkscape:connector-curvature="0" />
    <path
       d="m 429.521,232.391 c -5.863,-0.178 -9.84,-2.839 -9.84,-2.839 v -28.229 c 0,0 3.924,-2.404 8.738,-2.834 6.087,-0.546 11.953,1.293 11.953,15.815 0,15.313 -2.647,18.335 -10.851,18.087 z m 6.668,-50.224 c -9.601,0 -16.132,4.284 -16.132,4.284 v -30.184 c 0,-0.788 -0.629,-1.423 -1.405,-1.423 h -17.083 c -0.777,0 -1.408,0.635 -1.408,1.423 v 89.14 c 0,0.786 0.631,1.426 1.41,1.426 h 11.852 c 0.534,0 0.938,-0.275 1.237,-0.757 0.294,-0.479 0.719,-4.11 0.719,-4.11 0,0 6.986,6.62 20.21,6.62 15.524,0 24.427,-7.875 24.427,-35.351 0,-27.477 -14.219,-31.068 -23.827,-31.068"
       id="path15"
       inkscape:connector-curvature="0" />
    <path
       d="m 249.215,184.028 h -12.779 c 0,0 -0.019,-16.878 -0.019,-16.882 0,-0.639 -0.329,-0.958 -1.068,-0.958 h -17.413 c -0.677,0 -1.041,0.298 -1.041,0.948 v 17.445 c 0,0 -8.726,2.107 -9.316,2.277 -0.588,0.171 -1.021,0.712 -1.021,1.359 v 10.962 c 0,0.789 0.63,1.425 1.409,1.425 h 8.928 v 26.372 c 0,19.589 13.74,21.514 23.012,21.514 4.237,0 9.305,-1.361 10.141,-1.67 0.507,-0.186 0.8,-0.71 0.8,-1.278 l 0.015,-12.06 c 0,-0.786 -0.665,-1.423 -1.413,-1.423 -0.744,0 -2.649,0.303 -4.61,0.303 -6.277,0 -8.404,-2.918 -8.404,-6.696 0,-3.775 0,-25.062 0,-25.062 h 12.779 c 0.779,0 1.409,-0.636 1.409,-1.425 v -13.731 c 0,-0.787 -0.63,-1.42 -1.409,-1.42"
       id="path17"
       inkscape:connector-curvature="0" />
  </g>
</svg>
