<?xml version="1.0" encoding="utf-8"?>
<!-- Generator: Adobe Illustrator 23.0.0, SVG Export Plug-In . SVG Version: 6.00 Build 0)  -->
<svg version="1.1" id="Capa_1" xmlns="http://www.w3.org/2000/svg" xmlns:xlink="http://www.w3.org/1999/xlink" x="0px" y="0px"
	 viewBox="0 0 180 180" style="enable-background:new 0 0 180 180;" xml:space="preserve">
<style type="text/css">
	.st0{fill:url(#SVGID_1_);}
	.st1{opacity:0.25;}
	.st2{fill:#F7931E;}
	.st3{opacity:0.35;}
	.st4{fill:#FFFFFF;}
	.st5{fill:url(#SVGID_2_);}
	.st6{fill:#001E3B;}
	.st7{opacity:0.21;}
	.st8{fill:url(#SVGID_3_);}
	.st9{opacity:0.47;}
	.st10{font-family:'Raleway-Black';}
	.st11{font-size:24.4136px;}
	.st12{font-family:'Raleway-Light';}
	.st13{font-size:22.807px;}
	.st14{fill:url(#SVGID_4_);}
	.st15{fill:url(#SVGID_5_);}
	.st16{fill:url(#SVGID_6_);}
	.st17{fill:#020202;}
	.st18{fill:#26A5A8;}
	.st19{fill:#232325;}
	.st20{fill:#2DDEB0;}
</style>
<g>
	<linearGradient id="SVGID_1_" gradientUnits="userSpaceOnUse" x1="89.6765" y1="136.505" x2="90.9174" y2="-18.9266">
		<stop  offset="0" style="stop-color:#F7931E"/>
		<stop  offset="1" style="stop-color:#FCEE21"/>
	</linearGradient>
	<path class="st0" d="M180,90.04c0,4.14-0.28,8.21-0.83,12.21l-2.52-0.23l-20.3-21.21l-13.03,11.21l-28.49-23.03L99.29,43.83
		l-27.5,39.4H61.2l-11.82-6.07l-35.45,36.07l-10.61-4.85l-1.11,1.08c-1.39-6.25-2.11-12.75-2.11-19.42
		c0-49.68,40.27-89.95,89.96-89.95C139.73,0.09,180,40.36,180,90.04z"/>
	<g class="st1">
		<circle class="st2" cx="90.05" cy="88.18" r="83.33"/>
	</g>
	<g class="st1">
		<circle class="st2" cx="90.05" cy="88.18" r="73.6"/>
	</g>
	<g class="st3">
		<circle class="st4" cx="90.35" cy="85.8" r="85.71"/>
	</g>
	<linearGradient id="SVGID_2_" gradientUnits="userSpaceOnUse" x1="2.2046" y1="111.9165" x2="179.1738" y2="111.9165">
		<stop  offset="0" style="stop-color:#001E3B"/>
		<stop  offset="1" style="stop-color:#023151"/>
	</linearGradient>
	<path class="st5" d="M179.17,102.25c-0.91,6.7-2.55,13.17-4.85,19.31c-1.92,5.14-4.3,10.06-7.09,14.7
		c-15.72,26.2-44.4,43.74-77.18,43.74c-26.99,0-51.21-11.89-67.7-30.73c0,0,0,0,0,0c-3.53-4.04-6.71-8.39-9.49-13.01
		c-4.91-8.17-8.55-17.2-10.66-26.8l1.11-1.08l10.61,4.85l35.45-36.07l11.82,6.07h10.6l27.5-39.4l15.54,25.16l28.48,23.03
		l13.03-11.21l20.3,21.21L179.17,102.25z"/>
	<g>
		<polygon class="st6" points="18.96,116.2 49.27,84.52 57.84,87.88 48.51,87.42 		"/>
	</g>
	<g>
		<polygon class="st6" points="75.73,84.52 98.67,51.76 110.81,68.77 99.07,55.98 		"/>
	</g>
	<g>
		<polygon class="st6" points="142.34,97.5 156.55,84.52 174.73,103.56 156.55,87.6 		"/>
	</g>
	<g class="st7">
		<linearGradient id="SVGID_3_" gradientUnits="userSpaceOnUse" x1="2.2057" y1="111.9158" x2="179.1737" y2="111.9158">
			<stop  offset="0" style="stop-color:#001E3B;stop-opacity:0"/>
			<stop  offset="1" style="stop-color:#FFFFFF"/>
		</linearGradient>
		<path class="st8" d="M179.17,102.25c-1.66,12.31-5.82,23.82-11.94,34.01c-15.72,26.2-44.4,43.74-77.18,43.74
			c-32.78,0-61.47-17.54-77.19-43.74c-4.91-8.18-8.55-17.2-10.66-26.8l1.11-1.08l10.61,4.85l35.45-36.07l11.82,6.07h10.6l27.5-39.4
			l15.54,25.16l28.49,23.03l13.03-11.21l20.3,21.21L179.17,102.25z"/>
	</g>
	<g class="st9">
		<path class="st6" d="M174.32,121.56c-1.92,5.14-4.3,10.06-7.09,14.7c-15.72,26.2-44.4,43.74-77.18,43.74
			c-26.99,0-51.21-11.89-67.7-30.73C23.15,149.57,119.65,185.11,174.32,121.56z"/>
	</g>
</g>
<text transform="matrix(1 0 0 1 43.8633 123.5664)" class="st4 st10 st11">ACACHA</text>
<text transform="matrix(1 0 0 1 43.6529 142.3916)" class="st4 st12 st13">WORLDS</text>
<g>
	<linearGradient id="SVGID_4_" gradientUnits="userSpaceOnUse" x1="315.8669" y1="136.4816" x2="317.1085" y2="-19.0281">
		<stop  offset="0" style="stop-color:#F7931E"/>
		<stop  offset="1" style="stop-color:#FCEE21"/>
	</linearGradient>
	<path class="st14" d="M406.24,89.99c0,4.14-0.28,8.22-0.83,12.21l-2.53-0.23l-20.31-21.22l-13.04,11.21l-28.5-23.04l-15.55-25.17
		l-27.51,39.42h-10.61l-11.83-6.07l-35.47,36.09l-10.61-4.86l-1.11,1.08c-1.39-6.25-2.11-12.75-2.11-19.43
		c0-49.7,40.29-89.99,90-89.99C365.95,0,406.24,40.29,406.24,89.99z"/>
	<g class="st1">
		<circle class="st2" cx="316.24" cy="88.14" r="83.37"/>
	</g>
	<g class="st1">
		<circle class="st2" cx="316.24" cy="88.14" r="73.63"/>
	</g>
	<g class="st3">
		<circle class="st4" cx="316.54" cy="85.75" r="85.75"/>
	</g>
	<linearGradient id="SVGID_5_" gradientUnits="userSpaceOnUse" x1="228.3511" y1="111.8807" x2="405.4092" y2="111.8807">
		<stop  offset="0" style="stop-color:#001E3B"/>
		<stop  offset="1" style="stop-color:#023151"/>
	</linearGradient>
	<path class="st15" d="M405.41,102.2c-0.91,6.71-2.55,13.18-4.85,19.32c-1.92,5.14-4.3,10.06-7.09,14.71
		C377.73,162.45,349.04,180,316.24,180c-27.01,0-51.24-11.9-67.74-30.74c0,0,0,0,0,0c-3.53-4.04-6.71-8.39-9.49-13.02
		c-4.91-8.18-8.56-17.21-10.66-26.81l1.11-1.08l10.62,4.86l35.47-36.09l11.83,6.07h10.6l27.51-39.42l15.55,25.17l28.5,23.04
		l13.04-11.21l20.31,21.22L405.41,102.2z"/>
	<g>
		<polygon class="st6" points="245.12,116.17 275.44,84.47 284.02,87.84 274.68,87.38 		"/>
	</g>
	<g>
		<polygon class="st6" points="301.91,84.47 324.87,51.69 337.01,68.71 325.26,55.91 		"/>
	</g>
	<g>
		<polygon class="st6" points="368.56,97.46 382.77,84.47 400.96,103.52 382.77,87.55 		"/>
	</g>
	<g class="st7">
		<linearGradient id="SVGID_6_" gradientUnits="userSpaceOnUse" x1="228.3522" y1="111.88" x2="405.4091" y2="111.88">
			<stop  offset="0" style="stop-color:#001E3B;stop-opacity:0"/>
			<stop  offset="1" style="stop-color:#FFFFFF"/>
		</linearGradient>
		<path class="st16" d="M405.41,102.21c-1.66,12.31-5.82,23.83-11.95,34.03C377.73,162.45,349.04,180,316.24,180
			c-32.8,0-61.5-17.55-77.23-43.76c-4.91-8.18-8.56-17.21-10.66-26.81l1.11-1.08l10.61,4.86l35.47-36.09l11.83,6.07h10.61
			l27.51-39.42l15.55,25.17l28.5,23.04l13.04-11.21l20.31,21.22L405.41,102.21z"/>
	</g>
	<g class="st9">
		<path class="st6" d="M400.56,121.53c-1.92,5.14-4.3,10.06-7.09,14.71C377.73,162.45,349.04,180,316.24,180
			c-27.01,0-51.24-11.9-67.74-30.74C249.31,149.55,345.86,185.12,400.56,121.53z"/>
	</g>
</g>
<g>
	<path class="st4" d="M367.1,134.64c0,0-0.51-10.73-0.51-12.85c0-2.12-3.36-16.28-3.36-16.28c-7.16-0.95-56.23-1.53-64.19,0
		c-7.89,3.51-16.14,12.71-16.14,12.71h-5.11c-6.43,1.75-11.61,6.21-11.61,6.21l-2.26,8.33v5.4l3.94,1.59l4.05,0.09
		c0,0,0.44-10.39,9.18-10.43c9.71,0,9.85,10.65,9.85,10.65h48.56c0,0-1.02-10.08,8.84-10.08c9.86,0,9.13,10.08,9.13,10.08h8.47
		l2.63-1.17v-1.87L367.1,134.64z M299.97,108.38l10.43-0.12l-1.61,9.69l-21.42,0.2L299.97,108.38z M287.37,120.25l23.03-1.14
		l3.11-10.85l-2.06,11.99H287.37z M293.47,138.42l-4.5-9.73l9.74,5.92l39.85,4.53L293.47,138.42z M356.75,109.97l-40.51-4.6
		l45.75,0.8l3.02,11.99L356.75,109.97z M365.98,139.21h-7.96l9.93-1.13L365.98,139.21z"/>
	<path class="st4" d="M348.56,131.89c-4.05,0-7.32,3.28-7.32,7.32c0,4.05,3.28,7.32,7.32,7.32c4.04,0,7.32-3.28,7.32-7.32
		C355.88,135.17,352.6,131.89,348.56,131.89z M348.56,143.3c-2.26,0-4.09-1.83-4.09-4.09c0-2.26,1.83-4.09,4.09-4.09
		c2.26,0,4.09,1.83,4.09,4.09C352.64,141.47,350.81,143.3,348.56,143.3z"/>
	<path class="st4" d="M281.37,131.45c-4.04,0-7.32,3.28-7.32,7.32c0,4.04,3.28,7.32,7.32,7.32c4.05,0,7.32-3.28,7.32-7.32
		C288.7,134.73,285.42,131.45,281.37,131.45z M281.37,142.86c-2.26,0-4.09-1.83-4.09-4.09c0-2.26,1.83-4.09,4.09-4.09
		c2.26,0,4.09,1.83,4.09,4.09C285.46,141.03,283.63,142.86,281.37,142.86z"/>
</g>
<g>
	<g>
		<g>
			<path class="st17" d="M937.5,103.07h5.82l6.03,18.96h-5.29l-0.98-3.71h-5.36l-0.98,3.71h-5.31L937.5,103.07z M942.18,114.85
				l-1.76-6.67l-1.76,6.67H942.18z"/>
			<path class="st17" d="M949.12,112.36c0-1.16,0.22-2.29,0.65-3.4c0.44-1.11,1.07-2.12,1.91-3.03c0.84-0.91,1.86-1.63,3.06-2.18
				c1.2-0.54,2.56-0.81,4.07-0.81c1.82,0,3.4,0.38,4.75,1.13c1.35,0.76,2.36,1.76,3.02,3l-3.98,2.83c-0.23-0.62-0.57-1.1-1-1.44
				c-0.44-0.34-0.91-0.57-1.41-0.71c-0.51-0.13-1-0.2-1.48-0.2c-0.75,0-1.39,0.15-1.94,0.44c-0.54,0.29-0.99,0.68-1.34,1.16
				c-0.35,0.48-0.6,1.01-0.77,1.6c-0.17,0.59-0.25,1.17-0.25,1.76c0,0.66,0.1,1.29,0.29,1.9c0.2,0.6,0.48,1.14,0.85,1.62
				c0.37,0.47,0.83,0.84,1.37,1.11c0.54,0.27,1.15,0.4,1.83,0.4c0.48,0,0.97-0.08,1.47-0.23c0.5-0.15,0.95-0.4,1.36-0.73
				c0.41-0.34,0.72-0.79,0.93-1.36l4.25,2.54c-0.37,0.93-1,1.72-1.87,2.38c-0.87,0.66-1.86,1.16-2.96,1.51
				c-1.1,0.35-2.2,0.52-3.28,0.52c-1.41,0-2.69-0.28-3.86-0.84s-2.17-1.31-3.02-2.24c-0.85-0.93-1.5-1.98-1.96-3.15
				C949.35,114.76,949.12,113.58,949.12,112.36z"/>
			<path class="st17" d="M972.69,103.07h5.82l6.03,18.96h-5.29l-0.98-3.71h-5.36l-0.98,3.71h-5.31L972.69,103.07z M977.36,114.85
				l-1.76-6.67l-1.76,6.67H977.36z"/>
			<path class="st17" d="M984.31,112.36c0-1.16,0.22-2.29,0.65-3.4c0.44-1.11,1.07-2.12,1.91-3.03c0.84-0.91,1.86-1.63,3.06-2.18
				c1.2-0.54,2.56-0.81,4.07-0.81c1.82,0,3.4,0.38,4.75,1.13c1.35,0.76,2.36,1.76,3.02,3l-3.98,2.83c-0.23-0.62-0.57-1.1-1-1.44
				c-0.44-0.34-0.91-0.57-1.41-0.71c-0.51-0.13-1-0.2-1.48-0.2c-0.75,0-1.39,0.15-1.94,0.44c-0.54,0.29-0.99,0.68-1.34,1.16
				c-0.35,0.48-0.6,1.01-0.77,1.6c-0.17,0.59-0.25,1.17-0.25,1.76c0,0.66,0.1,1.29,0.29,1.9c0.2,0.6,0.48,1.14,0.85,1.62
				c0.37,0.47,0.83,0.84,1.37,1.11c0.54,0.27,1.15,0.4,1.83,0.4c0.48,0,0.97-0.08,1.47-0.23c0.5-0.15,0.95-0.4,1.36-0.73
				c0.41-0.34,0.72-0.79,0.93-1.36l4.25,2.54c-0.37,0.93-1,1.72-1.87,2.38c-0.87,0.66-1.86,1.16-2.96,1.51
				c-1.1,0.35-2.2,0.52-3.28,0.52c-1.41,0-2.69-0.28-3.86-0.84s-2.17-1.31-3.02-2.24c-0.85-0.93-1.5-1.98-1.96-3.15
				C984.54,114.76,984.31,113.58,984.31,112.36z"/>
			<path class="st17" d="M1020.56,103.07v18.96h-5.21v-7.42H1009v7.42h-5.21v-18.96h5.21v7h6.35v-7H1020.56z"/>
			<path class="st17" d="M1028.2,103.07h5.82l6.03,18.96h-5.29l-0.98-3.71h-5.36l-0.98,3.71h-5.31L1028.2,103.07z M1032.87,114.85
				l-1.76-6.67l-1.76,6.67H1032.87z"/>
		</g>
		<g>
			<path class="st17" d="M985.91,124.53h0.71l1.51,3.68l1.51-3.68h0.71l-1.78,4.26l2.13,4.94l3.88-9.27h0.8l-4.34,10.13h-0.67
				l-2.22-5.21l-2.24,5.21h-0.67l-4.32-10.13h0.78l3.89,9.27l2.1-4.94L985.91,124.53z"/>
			<path class="st17" d="M1000.58,134.66c-0.7,0-1.35-0.15-1.93-0.44c-0.58-0.29-1.08-0.68-1.5-1.16c-0.42-0.49-0.74-1.03-0.97-1.65
				c-0.23-0.61-0.34-1.24-0.34-1.89c0-0.68,0.12-1.32,0.36-1.93c0.24-0.61,0.57-1.16,1.01-1.64c0.43-0.48,0.94-0.86,1.51-1.14
				c0.58-0.28,1.2-0.42,1.88-0.42c0.71,0,1.36,0.15,1.93,0.44c0.58,0.29,1.07,0.69,1.49,1.18c0.42,0.49,0.74,1.05,0.97,1.65
				c0.23,0.61,0.34,1.23,0.34,1.85c0,0.68-0.12,1.33-0.36,1.95c-0.24,0.61-0.57,1.16-1.01,1.64c-0.43,0.48-0.94,0.86-1.51,1.13
				C1001.88,134.52,1001.25,134.66,1000.58,134.66z M996.57,129.52c0,0.58,0.1,1.14,0.3,1.67c0.2,0.53,0.48,1.01,0.83,1.43
				c0.36,0.42,0.78,0.75,1.27,1c0.49,0.25,1.03,0.37,1.62,0.37c0.6,0,1.15-0.13,1.64-0.39c0.49-0.26,0.92-0.6,1.27-1.03
				s0.62-0.91,0.81-1.43c0.19-0.53,0.28-1.07,0.28-1.62c0-0.58-0.1-1.14-0.29-1.67s-0.47-1.01-0.83-1.43
				c-0.36-0.42-0.79-0.75-1.28-1c-0.49-0.25-1.02-0.37-1.59-0.37c-0.61,0-1.16,0.13-1.65,0.39c-0.49,0.26-0.91,0.6-1.26,1.03
				s-0.62,0.91-0.81,1.43C996.67,128.43,996.57,128.97,996.57,129.52z"/>
			<path class="st17" d="M1007.28,134.59v-10.13h4.21c0.44,0,0.83,0.09,1.19,0.27c0.36,0.18,0.67,0.42,0.93,0.72
				c0.26,0.3,0.47,0.63,0.61,1.01c0.15,0.37,0.22,0.75,0.22,1.14c0,0.5-0.1,0.97-0.3,1.41c-0.2,0.44-0.48,0.8-0.83,1.1
				c-0.36,0.29-0.77,0.48-1.25,0.54l2.52,3.94h-0.84l-2.45-3.82h-3.28v3.82H1007.28z M1008.01,130.09h3.55
				c0.44,0,0.82-0.12,1.14-0.36c0.32-0.24,0.57-0.55,0.75-0.93s0.26-0.78,0.26-1.21c0-0.44-0.1-0.84-0.31-1.22s-0.48-0.68-0.81-0.91
				c-0.34-0.23-0.72-0.35-1.13-0.35h-3.45V130.09z"/>
			<path class="st17" d="M1016.54,134.59v-10.13h0.73v9.47h6.05v0.66H1016.54z"/>
			<path class="st17" d="M1024.82,134.59v-10.13h3.37c1.07,0,1.97,0.23,2.67,0.68c0.71,0.45,1.24,1.06,1.6,1.83
				c0.36,0.77,0.54,1.61,0.54,2.55c0,1.03-0.2,1.92-0.59,2.68c-0.39,0.76-0.95,1.35-1.67,1.77c-0.72,0.42-1.57,0.63-2.55,0.63
				H1024.82z M1032.27,129.51c0-0.85-0.16-1.6-0.48-2.27c-0.32-0.67-0.78-1.19-1.38-1.56c-0.6-0.38-1.34-0.56-2.22-0.56h-2.64v8.81
				h2.64c0.88,0,1.63-0.19,2.24-0.58c0.61-0.39,1.07-0.92,1.38-1.59C1032.12,131.09,1032.27,130.34,1032.27,129.51z"/>
			<path class="st17" d="M1040.89,126.14c-0.16-0.18-0.34-0.34-0.54-0.48c-0.2-0.14-0.41-0.25-0.64-0.34
				c-0.23-0.09-0.48-0.16-0.74-0.21c-0.27-0.05-0.55-0.07-0.86-0.07c-0.99,0-1.71,0.19-2.16,0.56c-0.45,0.37-0.68,0.88-0.68,1.52
				c0,0.43,0.1,0.77,0.31,1.02c0.2,0.25,0.53,0.45,0.96,0.61c0.44,0.15,1,0.3,1.7,0.44c0.73,0.15,1.36,0.33,1.9,0.53
				c0.53,0.2,0.94,0.48,1.23,0.83c0.29,0.35,0.43,0.83,0.43,1.42c0,0.45-0.09,0.84-0.26,1.17c-0.17,0.34-0.42,0.61-0.74,0.83
				c-0.32,0.22-0.71,0.38-1.15,0.5c-0.44,0.11-0.93,0.17-1.48,0.17c-0.52,0-1.02-0.06-1.5-0.17s-0.92-0.28-1.34-0.5
				c-0.42-0.22-0.81-0.5-1.17-0.84l0.38-0.58c0.21,0.23,0.44,0.43,0.71,0.61c0.26,0.18,0.55,0.33,0.86,0.45
				c0.31,0.12,0.64,0.22,0.99,0.29c0.35,0.07,0.72,0.11,1.1,0.11c0.88,0,1.58-0.16,2.08-0.49c0.5-0.33,0.75-0.81,0.75-1.46
				c0-0.45-0.11-0.81-0.34-1.08c-0.23-0.28-0.58-0.5-1.06-0.68c-0.48-0.18-1.07-0.34-1.78-0.49c-0.71-0.15-1.32-0.32-1.82-0.51
				c-0.5-0.19-0.88-0.45-1.13-0.77c-0.25-0.32-0.38-0.76-0.38-1.31c0-0.61,0.15-1.12,0.45-1.55c0.3-0.42,0.72-0.74,1.26-0.96
				c0.54-0.22,1.16-0.33,1.87-0.33c0.44,0,0.84,0.04,1.22,0.13s0.72,0.22,1.04,0.39c0.32,0.18,0.62,0.4,0.89,0.66L1040.89,126.14z"
				/>
		</g>
		<g>
			<path class="st17" d="M940.25,87.77c3.25-3.4,6.54-6.76,9.89-10.06c3.32-3.33,6.7-6.6,10.1-9.84l0.5-0.48l0.51,0.48
				c2.67,2.52,5.38,4.99,8,7.56l7.91,7.66c2.63,2.56,5.2,5.18,7.8,7.77c2.58,2.61,5.15,5.24,7.67,7.92
				c-2.79-2.39-5.55-4.82-8.28-7.27c-2.71-2.47-5.46-4.91-8.14-7.42l-8.03-7.53c-2.7-2.49-5.3-5.08-7.94-7.62l1.02,0
				c-3.43,3.21-6.89,6.4-10.4,9.52C947.37,81.62,943.84,84.72,940.25,87.77z"/>
		</g>
		<g>
			<path class="st17" d="M976.7,83.59c4.2-4.3,8.48-8.5,12.8-12.66c4.28-4.21,8.71-8.26,13.06-12.39l0.51-0.48l0.54,0.48
				c2.72,2.42,5.38,4.9,8.05,7.37l8.01,7.42c5.28,5.01,10.56,10.03,15.69,15.2c-5.62-4.63-11.1-9.43-16.58-14.22l-8.13-7.29
				c-2.71-2.43-5.43-4.85-8.08-7.34l1.05,0c-4.44,4.03-8.81,8.14-13.33,12.1C985.8,75.77,981.29,79.73,976.7,83.59z"/>
		</g>
	</g>
	<g>
		<path class="st17" d="M1024.22,45.34c-5.28,0-9.58,4.3-9.58,9.58c0,5.28,4.3,9.57,9.58,9.57s9.58-4.3,9.58-9.57
			C1033.8,49.63,1029.5,45.34,1024.22,45.34z M1024.22,64.01c-5.01,0-9.09-4.08-9.09-9.09c0-5.02,4.08-9.1,9.09-9.1
			c5.01,0,9.1,4.08,9.1,9.1C1033.32,59.93,1029.24,64.01,1024.22,64.01z"/>
	</g>
	<polygon class="st17" points="1027.25,51.79 1025.18,55.63 1023.56,54 	"/>
	<polygon class="st17" points="1024.82,55.94 1021.13,57.91 1023.23,54.35 	"/>
</g>
<g>
	<g>
		<g>
			<path class="st18" d="M720.45,103.07h5.82l6.03,18.96h-5.29l-0.98-3.71h-5.36l-0.98,3.71h-5.31L720.45,103.07z M725.12,114.85
				l-1.76-6.67l-1.76,6.67H725.12z"/>
			<path class="st18" d="M732.07,112.36c0-1.16,0.22-2.29,0.65-3.4c0.44-1.11,1.07-2.12,1.91-3.03c0.84-0.91,1.86-1.63,3.06-2.18
				c1.2-0.54,2.56-0.81,4.07-0.81c1.82,0,3.4,0.38,4.75,1.13s2.36,1.76,3.02,3l-3.98,2.83c-0.23-0.62-0.57-1.1-1-1.44
				c-0.44-0.34-0.91-0.57-1.41-0.71c-0.51-0.13-1-0.2-1.48-0.2c-0.75,0-1.39,0.15-1.94,0.44c-0.54,0.29-0.99,0.68-1.34,1.16
				c-0.35,0.48-0.6,1.01-0.77,1.6c-0.17,0.59-0.25,1.17-0.25,1.76c0,0.66,0.1,1.29,0.29,1.9c0.2,0.6,0.48,1.14,0.85,1.62
				c0.37,0.47,0.83,0.84,1.37,1.11c0.54,0.27,1.15,0.4,1.83,0.4c0.48,0,0.97-0.08,1.47-0.23c0.5-0.15,0.95-0.4,1.36-0.73
				c0.41-0.34,0.72-0.79,0.93-1.36l4.25,2.54c-0.37,0.93-1,1.72-1.87,2.38c-0.87,0.66-1.86,1.16-2.96,1.51
				c-1.1,0.35-2.2,0.52-3.28,0.52c-1.41,0-2.69-0.28-3.86-0.84s-2.17-1.31-3.02-2.24c-0.85-0.93-1.5-1.98-1.96-3.15
				C732.3,114.76,732.07,113.58,732.07,112.36z"/>
			<path class="st18" d="M755.64,103.07h5.82l6.03,18.96h-5.29l-0.98-3.71h-5.36l-0.98,3.71h-5.31L755.64,103.07z M760.31,114.85
				l-1.76-6.67l-1.76,6.67H760.31z"/>
			<path class="st18" d="M767.26,112.36c0-1.16,0.22-2.29,0.65-3.4c0.44-1.11,1.07-2.12,1.91-3.03c0.84-0.91,1.86-1.63,3.06-2.18
				c1.2-0.54,2.56-0.81,4.07-0.81c1.82,0,3.4,0.38,4.75,1.13c1.35,0.76,2.36,1.76,3.02,3l-3.98,2.83c-0.23-0.62-0.57-1.1-1-1.44
				c-0.44-0.34-0.91-0.57-1.41-0.71c-0.51-0.13-1-0.2-1.48-0.2c-0.75,0-1.39,0.15-1.94,0.44c-0.54,0.29-0.99,0.68-1.34,1.16
				c-0.35,0.48-0.6,1.01-0.77,1.6c-0.17,0.59-0.25,1.17-0.25,1.76c0,0.66,0.1,1.29,0.29,1.9c0.2,0.6,0.48,1.14,0.85,1.62
				c0.37,0.47,0.83,0.84,1.37,1.11c0.54,0.27,1.15,0.4,1.83,0.4c0.48,0,0.97-0.08,1.47-0.23c0.5-0.15,0.95-0.4,1.36-0.73
				c0.41-0.34,0.72-0.79,0.93-1.36l4.25,2.54c-0.37,0.93-1,1.72-1.87,2.38c-0.87,0.66-1.86,1.16-2.96,1.51
				c-1.1,0.35-2.2,0.52-3.28,0.52c-1.41,0-2.69-0.28-3.86-0.84s-2.17-1.31-3.02-2.24c-0.85-0.93-1.5-1.98-1.96-3.15
				C767.49,114.76,767.26,113.58,767.26,112.36z"/>
			<path class="st18" d="M803.51,103.07v18.96h-5.21v-7.42h-6.35v7.42h-5.21v-18.96h5.21v7h6.35v-7H803.51z"/>
			<path class="st18" d="M811.15,103.07h5.82l6.03,18.96h-5.29l-0.98-3.71h-5.36l-0.98,3.71h-5.31L811.15,103.07z M815.82,114.85
				l-1.76-6.67l-1.76,6.67H815.82z"/>
		</g>
		<g>
			<path class="st18" d="M768.86,124.53h0.71l1.51,3.68l1.51-3.68h0.71l-1.78,4.26l2.12,4.94l3.88-9.27h0.8L774,134.59h-0.67
				l-2.22-5.21l-2.24,5.21h-0.67l-4.32-10.13h0.78l3.89,9.27l2.1-4.94L768.86,124.53z"/>
			<path class="st18" d="M783.53,134.66c-0.7,0-1.35-0.15-1.93-0.44c-0.58-0.29-1.08-0.68-1.5-1.16c-0.42-0.49-0.74-1.03-0.97-1.65
				c-0.23-0.61-0.34-1.24-0.34-1.89c0-0.68,0.12-1.32,0.36-1.93c0.24-0.61,0.57-1.16,1.01-1.64c0.43-0.48,0.94-0.86,1.51-1.14
				c0.58-0.28,1.2-0.42,1.88-0.42c0.71,0,1.36,0.15,1.93,0.44c0.58,0.29,1.07,0.69,1.49,1.18c0.42,0.49,0.74,1.05,0.97,1.65
				c0.23,0.61,0.34,1.23,0.34,1.85c0,0.68-0.12,1.33-0.36,1.95s-0.57,1.16-1.01,1.64c-0.43,0.48-0.94,0.86-1.51,1.13
				C784.83,134.52,784.2,134.66,783.53,134.66z M779.52,129.52c0,0.58,0.1,1.14,0.3,1.67c0.2,0.53,0.48,1.01,0.83,1.43
				c0.36,0.42,0.78,0.75,1.27,1c0.49,0.25,1.03,0.37,1.62,0.37c0.6,0,1.15-0.13,1.64-0.39c0.49-0.26,0.92-0.6,1.27-1.03
				c0.35-0.43,0.62-0.91,0.81-1.43c0.19-0.53,0.28-1.07,0.28-1.62c0-0.58-0.1-1.14-0.29-1.67c-0.2-0.53-0.47-1.01-0.83-1.43
				c-0.36-0.42-0.79-0.75-1.28-1s-1.02-0.37-1.59-0.37c-0.61,0-1.16,0.13-1.65,0.39c-0.49,0.26-0.92,0.6-1.26,1.03
				c-0.35,0.43-0.62,0.91-0.81,1.43C779.61,128.43,779.52,128.97,779.52,129.52z"/>
			<path class="st18" d="M790.23,134.59v-10.13h4.21c0.44,0,0.83,0.09,1.19,0.27c0.36,0.18,0.67,0.42,0.93,0.72
				c0.26,0.3,0.47,0.63,0.61,1.01c0.15,0.37,0.22,0.75,0.22,1.14c0,0.5-0.1,0.97-0.3,1.41c-0.2,0.44-0.48,0.8-0.83,1.1
				c-0.36,0.29-0.77,0.48-1.25,0.54l2.52,3.94h-0.84l-2.45-3.82h-3.28v3.82H790.23z M790.96,130.09h3.55c0.44,0,0.82-0.12,1.14-0.36
				c0.32-0.24,0.57-0.55,0.75-0.93s0.26-0.78,0.26-1.21c0-0.44-0.1-0.84-0.31-1.22s-0.48-0.68-0.81-0.91
				c-0.34-0.23-0.72-0.35-1.13-0.35h-3.45V130.09z"/>
			<path class="st18" d="M799.49,134.59v-10.13h0.73v9.47h6.05v0.66H799.49z"/>
			<path class="st18" d="M807.77,134.59v-10.13h3.37c1.07,0,1.97,0.23,2.67,0.68c0.71,0.45,1.24,1.06,1.6,1.83
				c0.36,0.77,0.54,1.61,0.54,2.55c0,1.03-0.2,1.92-0.59,2.68c-0.39,0.76-0.95,1.35-1.67,1.77c-0.72,0.42-1.57,0.63-2.55,0.63
				H807.77z M815.22,129.51c0-0.85-0.16-1.6-0.48-2.27c-0.32-0.67-0.78-1.19-1.38-1.56c-0.6-0.38-1.34-0.56-2.22-0.56h-2.64v8.81
				h2.64c0.88,0,1.63-0.19,2.24-0.58c0.61-0.39,1.07-0.92,1.38-1.59C815.06,131.09,815.22,130.34,815.22,129.51z"/>
			<path class="st18" d="M823.83,126.14c-0.16-0.18-0.34-0.34-0.54-0.48c-0.2-0.14-0.41-0.25-0.64-0.34
				c-0.23-0.09-0.48-0.16-0.74-0.21c-0.27-0.05-0.55-0.07-0.86-0.07c-0.99,0-1.71,0.19-2.16,0.56c-0.45,0.37-0.68,0.88-0.68,1.52
				c0,0.43,0.1,0.77,0.31,1.02c0.2,0.25,0.53,0.45,0.96,0.61c0.44,0.15,1,0.3,1.7,0.44c0.73,0.15,1.36,0.33,1.9,0.53
				c0.53,0.2,0.94,0.48,1.23,0.83c0.29,0.35,0.43,0.83,0.43,1.42c0,0.45-0.09,0.84-0.26,1.17c-0.17,0.34-0.42,0.61-0.74,0.83
				c-0.32,0.22-0.71,0.38-1.15,0.5c-0.44,0.11-0.93,0.17-1.48,0.17c-0.52,0-1.02-0.06-1.5-0.17c-0.48-0.11-0.92-0.28-1.34-0.5
				c-0.42-0.22-0.81-0.5-1.17-0.84l0.38-0.58c0.21,0.23,0.44,0.43,0.71,0.61c0.26,0.18,0.55,0.33,0.86,0.45
				c0.31,0.12,0.64,0.22,0.99,0.29c0.35,0.07,0.72,0.11,1.1,0.11c0.88,0,1.58-0.16,2.08-0.49c0.5-0.33,0.75-0.81,0.75-1.46
				c0-0.45-0.11-0.81-0.34-1.08c-0.23-0.28-0.58-0.5-1.06-0.68c-0.48-0.18-1.07-0.34-1.78-0.49c-0.71-0.15-1.32-0.32-1.82-0.51
				c-0.5-0.19-0.88-0.45-1.13-0.77c-0.25-0.32-0.38-0.76-0.38-1.31c0-0.61,0.15-1.12,0.45-1.55c0.3-0.42,0.72-0.74,1.26-0.96
				c0.54-0.22,1.16-0.33,1.87-0.33c0.44,0,0.84,0.04,1.22,0.13c0.38,0.09,0.72,0.22,1.04,0.39c0.32,0.18,0.62,0.4,0.89,0.66
				L823.83,126.14z"/>
		</g>
		<g>
			<path class="st18" d="M723.2,87.77c3.25-3.4,6.54-6.76,9.89-10.06c3.32-3.33,6.7-6.6,10.1-9.84l0.5-0.48l0.51,0.48
				c2.67,2.52,5.38,4.99,8,7.56l7.91,7.66c2.63,2.56,5.2,5.18,7.8,7.77c2.58,2.61,5.15,5.24,7.67,7.92
				c-2.79-2.39-5.55-4.82-8.28-7.27c-2.71-2.47-5.46-4.91-8.14-7.42l-8.03-7.53c-2.7-2.49-5.3-5.08-7.94-7.62l1.02,0
				c-3.43,3.21-6.89,6.4-10.4,9.52C730.32,81.62,726.78,84.72,723.2,87.77z"/>
		</g>
		<g>
			<path class="st18" d="M759.64,83.59c4.2-4.3,8.48-8.5,12.8-12.66c4.28-4.21,8.71-8.26,13.06-12.39l0.51-0.48l0.54,0.48
				c2.72,2.42,5.38,4.9,8.05,7.37l8.01,7.42c5.28,5.01,10.56,10.03,15.69,15.2c-5.62-4.63-11.1-9.43-16.58-14.22l-8.13-7.29
				c-2.71-2.43-5.43-4.85-8.08-7.34l1.05,0c-4.44,4.03-8.81,8.14-13.33,12.1C768.75,75.77,764.24,79.73,759.64,83.59z"/>
		</g>
	</g>
	<g>
		<path class="st18" d="M807.17,45.34c-5.28,0-9.58,4.3-9.58,9.58c0,5.28,4.3,9.57,9.58,9.57c5.28,0,9.58-4.3,9.58-9.57
			C816.75,49.63,812.45,45.34,807.17,45.34z M807.17,64.01c-5.01,0-9.09-4.08-9.09-9.09c0-5.02,4.08-9.1,9.09-9.1
			c5.01,0,9.1,4.08,9.1,9.1C816.27,59.93,812.19,64.01,807.17,64.01z"/>
	</g>
	<polygon class="st18" points="810.19,51.79 808.13,55.63 806.51,54 	"/>
	<polygon class="st18" points="807.77,55.94 804.08,57.91 806.17,54.35 	"/>
</g>
<rect x="441.54" y="0" class="st19" width="180" height="180"/>
<g>
	<g>
		<g>
			<path class="st18" d="M482.42,103.07h5.82l6.03,18.96h-5.29l-0.98-3.71h-5.36l-0.98,3.71h-5.31L482.42,103.07z M487.09,114.85
				l-1.76-6.67l-1.76,6.67H487.09z"/>
			<path class="st18" d="M494.03,112.36c0-1.16,0.22-2.29,0.65-3.4c0.44-1.11,1.07-2.12,1.91-3.03c0.84-0.91,1.86-1.63,3.06-2.18
				c1.2-0.54,2.56-0.81,4.07-0.81c1.82,0,3.4,0.38,4.75,1.13s2.36,1.76,3.02,3l-3.98,2.83c-0.23-0.62-0.57-1.1-1-1.44
				c-0.44-0.34-0.91-0.57-1.41-0.71c-0.51-0.13-1-0.2-1.48-0.2c-0.75,0-1.39,0.15-1.94,0.44c-0.54,0.29-0.99,0.68-1.34,1.16
				c-0.35,0.48-0.6,1.01-0.77,1.6c-0.17,0.59-0.25,1.17-0.25,1.76c0,0.66,0.1,1.29,0.29,1.9c0.2,0.6,0.48,1.14,0.85,1.62
				c0.37,0.47,0.83,0.84,1.37,1.11c0.54,0.27,1.15,0.4,1.83,0.4c0.48,0,0.97-0.08,1.47-0.23c0.5-0.15,0.95-0.4,1.36-0.73
				c0.41-0.34,0.72-0.79,0.93-1.36l4.25,2.54c-0.37,0.93-1,1.72-1.87,2.38c-0.87,0.66-1.86,1.16-2.96,1.51
				c-1.1,0.35-2.2,0.52-3.28,0.52c-1.41,0-2.69-0.28-3.86-0.84c-1.17-0.56-2.17-1.31-3.02-2.24c-0.85-0.93-1.5-1.98-1.96-3.15
				C494.27,114.76,494.03,113.58,494.03,112.36z"/>
			<path class="st18" d="M517.61,103.07h5.82l6.03,18.96h-5.29l-0.98-3.71h-5.36l-0.98,3.71h-5.31L517.61,103.07z M522.28,114.85
				l-1.76-6.67l-1.76,6.67H522.28z"/>
			<path class="st18" d="M529.22,112.36c0-1.16,0.22-2.29,0.65-3.4c0.44-1.11,1.07-2.12,1.91-3.03c0.84-0.91,1.86-1.63,3.06-2.18
				c1.2-0.54,2.56-0.81,4.07-0.81c1.82,0,3.4,0.38,4.75,1.13c1.35,0.76,2.36,1.76,3.02,3l-3.98,2.83c-0.23-0.62-0.57-1.1-1-1.44
				c-0.44-0.34-0.91-0.57-1.41-0.71c-0.51-0.13-1-0.2-1.48-0.2c-0.75,0-1.39,0.15-1.94,0.44c-0.54,0.29-0.99,0.68-1.34,1.16
				c-0.35,0.48-0.6,1.01-0.77,1.6c-0.17,0.59-0.25,1.17-0.25,1.76c0,0.66,0.1,1.29,0.29,1.9c0.2,0.6,0.48,1.14,0.85,1.62
				c0.37,0.47,0.83,0.84,1.37,1.11c0.54,0.27,1.15,0.4,1.83,0.4c0.48,0,0.97-0.08,1.47-0.23c0.5-0.15,0.95-0.4,1.36-0.73
				c0.41-0.34,0.72-0.79,0.93-1.36l4.25,2.54c-0.37,0.93-1,1.72-1.87,2.38c-0.87,0.66-1.86,1.16-2.96,1.51
				c-1.1,0.35-2.2,0.52-3.28,0.52c-1.41,0-2.69-0.28-3.86-0.84c-1.17-0.56-2.17-1.31-3.02-2.24c-0.85-0.93-1.5-1.98-1.96-3.15
				C529.46,114.76,529.22,113.58,529.22,112.36z"/>
			<path class="st18" d="M565.48,103.07v18.96h-5.21v-7.42h-6.35v7.42h-5.21v-18.96h5.21v7h6.35v-7H565.48z"/>
			<path class="st18" d="M573.12,103.07h5.82l6.03,18.96h-5.29l-0.98-3.71h-5.36l-0.98,3.71h-5.31L573.12,103.07z M577.79,114.85
				l-1.76-6.67l-1.76,6.67H577.79z"/>
		</g>
		<g>
			<path class="st18" d="M530.83,124.53h0.71l1.51,3.68l1.51-3.68h0.71l-1.78,4.26l2.13,4.94l3.88-9.27h0.8l-4.34,10.13h-0.67
				l-2.22-5.21l-2.24,5.21h-0.67l-4.32-10.13h0.78l3.89,9.27l2.1-4.94L530.83,124.53z"/>
			<path class="st18" d="M545.49,134.66c-0.7,0-1.35-0.15-1.93-0.44c-0.58-0.29-1.08-0.68-1.5-1.16c-0.42-0.49-0.74-1.03-0.97-1.65
				c-0.23-0.61-0.34-1.24-0.34-1.89c0-0.68,0.12-1.32,0.36-1.93c0.24-0.61,0.57-1.16,1.01-1.64c0.43-0.48,0.94-0.86,1.51-1.14
				c0.58-0.28,1.2-0.42,1.88-0.42c0.71,0,1.36,0.15,1.93,0.44c0.58,0.29,1.07,0.69,1.49,1.18c0.42,0.49,0.74,1.05,0.97,1.65
				c0.23,0.61,0.34,1.23,0.34,1.85c0,0.68-0.12,1.33-0.36,1.95c-0.24,0.61-0.57,1.16-1.01,1.64c-0.43,0.48-0.94,0.86-1.51,1.13
				C546.79,134.52,546.17,134.66,545.49,134.66z M541.49,129.52c0,0.58,0.1,1.14,0.3,1.67c0.2,0.53,0.48,1.01,0.83,1.43
				c0.36,0.42,0.78,0.75,1.27,1c0.49,0.25,1.03,0.37,1.62,0.37c0.6,0,1.15-0.13,1.64-0.39c0.49-0.26,0.92-0.6,1.27-1.03
				c0.35-0.43,0.62-0.91,0.81-1.43c0.19-0.53,0.28-1.07,0.28-1.62c0-0.58-0.1-1.14-0.29-1.67c-0.19-0.53-0.47-1.01-0.83-1.43
				c-0.36-0.42-0.79-0.75-1.28-1c-0.49-0.25-1.02-0.37-1.59-0.37c-0.61,0-1.16,0.13-1.65,0.39c-0.49,0.26-0.92,0.6-1.26,1.03
				s-0.62,0.91-0.81,1.43C541.58,128.43,541.49,128.97,541.49,129.52z"/>
			<path class="st18" d="M552.2,134.59v-10.13h4.21c0.44,0,0.83,0.09,1.19,0.27c0.36,0.18,0.67,0.42,0.93,0.72
				c0.26,0.3,0.47,0.63,0.61,1.01c0.15,0.37,0.22,0.75,0.22,1.14c0,0.5-0.1,0.97-0.3,1.41c-0.2,0.44-0.48,0.8-0.83,1.1
				c-0.36,0.29-0.77,0.48-1.25,0.54l2.52,3.94h-0.84l-2.45-3.82h-3.28v3.82H552.2z M552.93,130.09h3.55c0.44,0,0.82-0.12,1.14-0.36
				c0.32-0.24,0.57-0.55,0.75-0.93s0.26-0.78,0.26-1.21c0-0.44-0.1-0.84-0.31-1.22s-0.48-0.68-0.81-0.91s-0.72-0.35-1.13-0.35h-3.45
				V130.09z"/>
			<path class="st18" d="M561.45,134.59v-10.13h0.73v9.47h6.05v0.66H561.45z"/>
			<path class="st18" d="M569.74,134.59v-10.13h3.37c1.07,0,1.97,0.23,2.67,0.68c0.71,0.45,1.24,1.06,1.6,1.83
				c0.36,0.77,0.54,1.61,0.54,2.55c0,1.03-0.2,1.92-0.58,2.68c-0.39,0.76-0.95,1.35-1.67,1.77c-0.72,0.42-1.57,0.63-2.55,0.63
				H569.74z M577.19,129.51c0-0.85-0.16-1.6-0.48-2.27c-0.32-0.67-0.78-1.19-1.38-1.56c-0.6-0.38-1.34-0.56-2.22-0.56h-2.64v8.81
				h2.64c0.88,0,1.63-0.19,2.24-0.58c0.61-0.39,1.07-0.92,1.38-1.59C577.03,131.09,577.19,130.34,577.19,129.51z"/>
			<path class="st18" d="M585.8,126.14c-0.16-0.18-0.34-0.34-0.54-0.48c-0.2-0.14-0.41-0.25-0.64-0.34
				c-0.23-0.09-0.48-0.16-0.74-0.21c-0.27-0.05-0.55-0.07-0.86-0.07c-0.99,0-1.71,0.19-2.16,0.56c-0.45,0.37-0.68,0.88-0.68,1.52
				c0,0.43,0.1,0.77,0.31,1.02c0.2,0.25,0.53,0.45,0.96,0.61c0.44,0.15,1,0.3,1.7,0.44c0.73,0.15,1.36,0.33,1.9,0.53
				c0.53,0.2,0.94,0.48,1.23,0.83c0.29,0.35,0.43,0.83,0.43,1.42c0,0.45-0.09,0.84-0.26,1.17c-0.17,0.34-0.42,0.61-0.74,0.83
				c-0.32,0.22-0.71,0.38-1.15,0.5c-0.44,0.11-0.93,0.17-1.48,0.17c-0.52,0-1.02-0.06-1.5-0.17c-0.48-0.11-0.92-0.28-1.34-0.5
				c-0.42-0.22-0.81-0.5-1.17-0.84l0.38-0.58c0.21,0.23,0.44,0.43,0.71,0.61c0.26,0.18,0.55,0.33,0.86,0.45
				c0.31,0.12,0.64,0.22,0.99,0.29c0.35,0.07,0.72,0.11,1.1,0.11c0.88,0,1.58-0.16,2.08-0.49c0.5-0.33,0.75-0.81,0.75-1.46
				c0-0.45-0.11-0.81-0.34-1.08c-0.23-0.28-0.58-0.5-1.06-0.68c-0.48-0.18-1.07-0.34-1.78-0.49c-0.71-0.15-1.32-0.32-1.82-0.51
				c-0.5-0.19-0.88-0.45-1.13-0.77c-0.25-0.32-0.38-0.76-0.38-1.31c0-0.61,0.15-1.12,0.45-1.55c0.3-0.42,0.72-0.74,1.26-0.96
				c0.54-0.22,1.16-0.33,1.87-0.33c0.44,0,0.84,0.04,1.22,0.13c0.38,0.09,0.72,0.22,1.04,0.39c0.32,0.18,0.62,0.4,0.89,0.66
				L585.8,126.14z"/>
		</g>
		<g>
			<path class="st18" d="M485.17,87.77c3.25-3.4,6.54-6.76,9.89-10.06c3.32-3.33,6.7-6.6,10.1-9.84l0.5-0.48l0.51,0.48
				c2.67,2.52,5.38,4.99,8,7.56l7.91,7.66c2.63,2.56,5.2,5.18,7.8,7.77c2.58,2.61,5.15,5.24,7.67,7.92
				c-2.79-2.39-5.55-4.82-8.28-7.27c-2.71-2.47-5.46-4.91-8.14-7.42l-8.03-7.53c-2.7-2.49-5.3-5.08-7.94-7.62l1.02,0
				c-3.43,3.21-6.89,6.4-10.4,9.52C492.29,81.62,488.75,84.72,485.17,87.77z"/>
		</g>
		<g>
			<path class="st18" d="M521.61,83.59c4.2-4.3,8.48-8.5,12.8-12.66c4.28-4.21,8.71-8.26,13.06-12.39l0.51-0.48l0.54,0.48
				c2.72,2.42,5.38,4.9,8.05,7.37l8.01,7.42c5.28,5.01,10.56,10.03,15.69,15.2c-5.62-4.63-11.1-9.43-16.58-14.22l-8.13-7.29
				c-2.71-2.43-5.43-4.85-8.08-7.34l1.05,0c-4.44,4.03-8.81,8.14-13.33,12.1C530.72,75.77,526.21,79.73,521.61,83.59z"/>
		</g>
	</g>
	<g>
		<path class="st18" d="M569.14,45.34c-5.28,0-9.58,4.3-9.58,9.58c0,5.28,4.3,9.57,9.58,9.57c5.28,0,9.58-4.3,9.58-9.57
			C578.72,49.63,574.42,45.34,569.14,45.34z M569.14,64.01c-5.01,0-9.09-4.08-9.09-9.09c0-5.02,4.08-9.1,9.09-9.1
			c5.01,0,9.1,4.08,9.1,9.1C578.24,59.93,574.15,64.01,569.14,64.01z"/>
	</g>
	<polygon class="st18" points="572.16,51.79 570.1,55.63 568.48,54 	"/>
	<polygon class="st18" points="569.74,55.94 566.05,57.91 568.14,54.35 	"/>
</g>
<g>
	<g>
		<path d="M1410.97,67.49h6.77c4.37,0,7.32,0.21,8.86,0.64s2.71,1.13,3.51,2.1c0.8,0.98,1.3,2.06,1.5,3.26
			c0.2,1.2,0.3,3.55,0.3,7.06v12.97c0,3.32-0.15,5.55-0.44,6.67c-0.29,1.12-0.81,2-1.54,2.63c-0.73,0.63-1.63,1.08-2.71,1.33
			s-2.69,0.38-4.86,0.38h-11.41V67.49z M1420.02,73.82v24.37c1.3,0,2.11-0.28,2.41-0.83c0.3-0.56,0.45-2.07,0.45-4.54V78.42
			c0-1.68-0.05-2.75-0.15-3.23c-0.1-0.47-0.33-0.82-0.69-1.04C1421.68,73.93,1421.01,73.82,1420.02,73.82z"/>
		<path d="M1435.3,67.49h15.08v7.41h-6.04v7.02h5.65v7.05h-5.65v8.15h6.64v7.41h-15.69V67.49z"/>
		<path d="M1475.09,67.49l-4.6,37.04h-13.74l-5.23-37.04h9.54c1.11,10.21,1.9,18.84,2.38,25.9c0.47-7.14,0.96-13.48,1.49-19.01
			l0.63-6.89H1475.09z"/>
	</g>
	<g>
		<path d="M1470.81,107.24c0,2.5-1.02,4.78-2.66,6.42c-1.64,1.64-3.91,2.66-6.42,2.66h-62.97l-13.35-32.49l-13.29,32.49h-14.78
			l22.31-52.64h11.44l18.56,43.56H1470.81z"/>
	</g>
</g>
<rect x="1557.72" y="0" width="180" height="180"/>
<g>
	<g>
		<path class="st4" d="M1642.47,67.49h6.77c4.37,0,7.32,0.21,8.86,0.64c1.54,0.43,2.71,1.13,3.51,2.1c0.8,0.98,1.3,2.06,1.5,3.26
			c0.2,1.2,0.3,3.55,0.3,7.06v12.97c0,3.32-0.15,5.55-0.44,6.67c-0.29,1.12-0.81,2-1.54,2.63c-0.73,0.63-1.63,1.08-2.71,1.33
			s-2.69,0.38-4.86,0.38h-11.41V67.49z M1651.52,73.82v24.37c1.3,0,2.11-0.28,2.41-0.83c0.3-0.56,0.45-2.07,0.45-4.54V78.42
			c0-1.68-0.05-2.75-0.15-3.23c-0.1-0.47-0.33-0.82-0.69-1.04C1653.18,73.93,1652.51,73.82,1651.52,73.82z"/>
		<path class="st4" d="M1666.8,67.49h15.08v7.41h-6.04v7.02h5.65v7.05h-5.65v8.15h6.64v7.41h-15.69V67.49z"/>
		<path class="st4" d="M1706.59,67.49l-4.6,37.04h-13.74l-5.23-37.04h9.54c1.11,10.21,1.9,18.84,2.38,25.9
			c0.47-7.14,0.96-13.48,1.49-19.01l0.63-6.89H1706.59z"/>
	</g>
	<g>
		<path class="st4" d="M1702.31,107.24c0,2.5-1.02,4.78-2.66,6.42c-1.64,1.64-3.91,2.66-6.42,2.66h-62.97l-13.35-32.49l-13.29,32.49
			h-14.78l22.31-52.64h11.44l18.56,43.56H1702.31z"/>
	</g>
</g>
<rect x="1107.22" y="0" class="st19" width="180" height="180"/>
<g>
	<g>
		<path class="st20" d="M1191.98,67.49h6.77c4.37,0,7.32,0.21,8.86,0.64s2.71,1.13,3.51,2.1c0.8,0.98,1.3,2.06,1.5,3.26
			c0.2,1.2,0.3,3.55,0.3,7.06v12.97c0,3.32-0.15,5.55-0.44,6.67c-0.29,1.12-0.81,2-1.54,2.63c-0.73,0.63-1.63,1.08-2.71,1.33
			s-2.69,0.38-4.86,0.38h-11.41V67.49z M1201.03,73.82v24.37c1.3,0,2.11-0.28,2.41-0.83c0.3-0.56,0.45-2.07,0.45-4.54V78.42
			c0-1.68-0.05-2.75-0.15-3.23c-0.1-0.47-0.33-0.82-0.69-1.04C1202.69,73.93,1202.02,73.82,1201.03,73.82z"/>
		<path class="st20" d="M1216.31,67.49h15.08v7.41h-6.04v7.02h5.65v7.05h-5.65v8.15h6.64v7.41h-15.69V67.49z"/>
		<path class="st20" d="M1256.1,67.49l-4.6,37.04h-13.74l-5.23-37.04h9.54c1.11,10.21,1.9,18.84,2.38,25.9
			c0.47-7.14,0.96-13.48,1.49-19.01l0.63-6.89H1256.1z"/>
	</g>
	<g>
		<path class="st20" d="M1251.82,107.24c0,2.5-1.02,4.78-2.66,6.42c-1.64,1.64-3.91,2.66-6.42,2.66h-62.97l-13.35-32.49
			l-13.29,32.49h-14.78l22.31-52.64h11.44l18.56,43.56H1251.82z"/>
	</g>
</g>
</svg>
