<?xml version="1.0" encoding="UTF-8" standalone="no"?>
<!-- Generator: Adobe Illustrator 19.2.1, SVG Export Plug-In . SVG Version: 6.00 Build 0)  -->

<svg
   xmlns:dc="http://purl.org/dc/elements/1.1/"
   xmlns:cc="http://creativecommons.org/ns#"
   xmlns:rdf="http://www.w3.org/1999/02/22-rdf-syntax-ns#"
   xmlns:svg="http://www.w3.org/2000/svg"
   xmlns="http://www.w3.org/2000/svg"
   xmlns:sodipodi="http://sodipodi.sourceforge.net/DTD/sodipodi-0.dtd"
   xmlns:inkscape="http://www.inkscape.org/namespaces/inkscape"
   version="1.1"
   id="layer"
   x="0px"
   y="0px"
   viewBox="0 0 599.79993 102.5"
   xml:space="preserve"
   sodipodi:docname="nuxtjs.svg"
   width="599.79993"
   height="102.5"
   inkscape:version="0.92.5 (2060ec1f9f, 2020-04-08)"><metadata
   id="metadata19"><rdf:RDF><cc:Work
       rdf:about=""><dc:format>image/svg+xml</dc:format><dc:type
         rdf:resource="http://purl.org/dc/dcmitype/StillImage" /><dc:title></dc:title></cc:Work></rdf:RDF></metadata><defs
   id="defs17" /><sodipodi:namedview
   pagecolor="#ffffff"
   bordercolor="#666666"
   borderopacity="1"
   objecttolerance="10"
   gridtolerance="10"
   guidetolerance="10"
   inkscape:pageopacity="0"
   inkscape:pageshadow="2"
   inkscape:window-width="1920"
   inkscape:window-height="1016"
   id="namedview15"
   showgrid="false"
   inkscape:zoom="0.36196319"
   inkscape:cx="299.67476"
   inkscape:cy="51.1"
   inkscape:window-x="0"
   inkscape:window-y="27"
   inkscape:window-maximized="1"
   inkscape:current-layer="layer" />
<style
   type="text/css"
   id="style2">
	.st0{fill:#2F495E;}
	.st1{fill:#00C58E;}
	.st2{fill:#108775;}
</style>
<path
   class="st0"
   d="m 238.77476,30.4 c 0.8,0.9 1.3,2 1.2,3.2 v 61.2 c 0,1.3 -0.5,2.6 -1.4,3.5 -0.9,1 -2.2,1.5 -3.5,1.4 -0.7,0 -1.5,-0.1 -2.2,-0.3 -0.6,-0.2 -1.2,-0.6 -1.7,-1.1 l -39.5,-51.6 v 48.7 c 0,1.2 -0.4,2.3 -1.3,3.2 -0.8,0.8 -2,1.3 -3.2,1.3 -1.2,0 -2.3,-0.4 -3.1,-1.3 -0.8,-0.9 -1.2,-2 -1.2,-3.2 V 34 c 0,-1.3 0.5,-2.6 1.4,-3.5 0.9,-0.9 2.1,-1.4 3.4,-1.4 0.8,0 1.6,0.1 2.3,0.4 0.7,0.3 1.3,0.7 1.7,1.3 l 39.5,51.8 v -49 c 0,-1.2 0.4,-2.3 1.3,-3.2 0.8,-0.8 2,-1.3 3.2,-1.3 1.1,0 2.3,0.5 3.1,1.3 z m 81.5,0 c 0.9,1 1.3,2.2 1.3,3.5 v 38.7 c 0.1,5 -1.1,10 -3.5,14.3 -2.3,4.1 -5.6,7.6 -9.7,9.9 -4.3,2.4 -9.1,3.7 -14,3.6 -4.9,0.1 -9.8,-1.2 -14.1,-3.6 -4.1,-2.3 -7.5,-5.8 -9.8,-9.9 -2.4,-4.4 -3.6,-9.3 -3.5,-14.3 V 33.9 c 0,-1.3 0.5,-2.6 1.4,-3.5 1,-0.9 2.3,-1.5 3.6,-1.4 1.3,0 2.5,0.5 3.4,1.4 0.9,0.9 1.5,2.1 1.4,3.4 v 38.7 c -0.1,3.3 0.8,6.6 2.4,9.4 3.1,5.5 8.9,8.8 15.1,8.8 3.1,0 6.2,-0.8 9,-2.3 2.8,-1.5 5.1,-3.8 6.7,-6.5 1.7,-2.9 2.5,-6.1 2.5,-9.4 V 33.8 c 0,-1.3 0.4,-2.5 1.2,-3.5 0.8,-0.9 2.1,-1.5 3.3,-1.4 1.2,0 2.5,0.6 3.3,1.5 z m 77.7,62.1 c 0.6,0.8 0.9,1.8 0.9,2.9 0.1,1.3 -0.5,2.6 -1.4,3.4 -0.9,0.8 -2.1,1.3 -3.3,1.3 -1.6,0.1 -3.1,-0.7 -3.9,-2 l -19.6,-26.2 -19.2,26.1 c -0.9,1.3 -2.3,2.1 -3.9,2.1 -1.2,0 -2.3,-0.4 -3.1,-1.3 -0.8,-0.7 -1.3,-1.8 -1.3,-2.9 0,-1.2 0.5,-2.4 1.2,-3.3 l 20.7,-28.2 -20.8,-28 c -0.6,-0.8 -1,-1.8 -1,-2.9 0,-1.3 0.5,-2.5 1.4,-3.4 0.9,-0.9 2.1,-1.4 3.4,-1.4 0.8,0 1.5,0.2 2.2,0.5 0.7,0.3 1.3,0.9 1.8,1.5 l 19.4,26 19.2,-25.8 c 0.8,-1.3 2.3,-2.1 3.8,-2.2 1.2,0 2.4,0.5 3.2,1.4 0.9,0.8 1.4,1.9 1.4,3.1 0,1 -0.4,2 -1,2.9 l -21.1,28 c 0,0.3 21,28.4 21,28.4 z m 72.8,-62.1 c 0.9,0.9 1.5,2.1 1.4,3.4 0,1.3 -0.5,2.5 -1.4,3.3 -1,0.8 -2.2,1.3 -3.5,1.2 h -18 v 56.6 c 0,1.3 -0.5,2.5 -1.4,3.4 -2.1,1.9 -5.3,1.9 -7.4,0 -0.9,-0.9 -1.5,-2.1 -1.4,-3.4 V 38.3 h -17.9 c -1.3,0 -2.5,-0.4 -3.5,-1.2 -0.9,-0.9 -1.4,-2.1 -1.4,-3.4 0,-1.2 0.5,-2.4 1.4,-3.3 1,-0.8 2.2,-1.3 3.5,-1.2 h 46.1 c 1.3,-0.1 2.5,0.3 3.5,1.2 z"
   id="path4"
   inkscape:connector-curvature="0"
   style="fill:#2f495e" />
<path
   class="st1"
   d="m 492.87476,98 c -3.3,-1.9 -6,-4.5 -7.9,-7.8 -0.6,-0.8 -0.9,-1.7 -0.9,-2.7 0,-1.3 0.6,-2.5 1.5,-3.3 0.8,-0.9 1.9,-1.4 3.1,-1.4 1.8,0.2 3.5,1.1 4.5,2.5 2.2,3.7 6.3,5.9 10.6,5.9 3.5,0.1 6.9,-1.3 9.4,-3.7 2.5,-2.4 3.9,-5.7 3.8,-9.2 V 34.1 c 0,-1.3 0.5,-2.6 1.5,-3.4 0.9,-0.9 2.2,-1.4 3.5,-1.4 1.3,-0.1 2.6,0.4 3.6,1.4 0.9,0.9 1.4,2.2 1.4,3.5 v 44.3 c 0,4 -1,7.9 -3,11.3 -2,3.4 -4.9,6.2 -8.3,8.2 -3.6,2 -7.7,3.1 -11.9,3 -3.8,-0.2 -7.5,-1.1 -10.9,-3 z m 69.4,0.7 c -4,-1.5 -7.7,-3.8 -10.8,-6.7 -1.3,-1 -2.1,-2.5 -2.1,-4.1 0,-1.2 0.5,-2.4 1.4,-3.3 0.9,-0.9 2.1,-1.4 3.3,-1.4 1.1,0 2.1,0.4 2.9,1.1 2.4,2.3 5.2,4.2 8.3,5.5 3.1,1.2 6.4,1.8 9.7,1.8 3.8,0.1 7.5,-0.9 10.7,-2.9 2.7,-1.5 4.3,-4.3 4.4,-7.4 0.1,-3.3 -1.6,-6.4 -4.4,-8.1 -4,-2.4 -8.5,-4 -13.1,-4.8 -6.9,-1.4 -12.3,-3.7 -16,-7 -3.7,-3.2 -5.6,-7.7 -5.6,-13.4 -0.1,-3.8 1,-7.4 3.2,-10.5 2.2,-3.1 5.2,-5.5 8.6,-6.9 4,-1.7 8.2,-2.5 12.5,-2.4 4,0 8,0.7 11.8,2 3.3,1.1 6.4,3 9,5.4 1.4,1 2.2,2.6 2.3,4.3 0,1.2 -0.5,2.4 -1.4,3.2 -0.8,0.9 -2,1.5 -3.3,1.4 -0.8,0 -1.7,-0.3 -2.3,-0.8 -2.1,-2 -4.6,-3.5 -7.3,-4.4 -2.8,-1.1 -5.8,-1.7 -8.8,-1.8 -3.8,-0.2 -7.5,0.8 -10.7,2.8 -2.5,1.7 -4,4.4 -4,7.4 0,3 1.5,5.8 4,7.4 3.7,2.1 7.7,3.6 11.9,4.4 4.4,0.9 8.8,2.2 12.9,4 3.1,1.4 5.8,3.6 7.7,6.5 1.9,3.3 2.9,7 2.7,10.8 0.1,3.7 -1.1,7.4 -3.3,10.4 -2.3,3.1 -5.4,5.6 -8.9,7.1 -3.9,1.7 -8.1,2.6 -12.4,2.5 -4.3,0.1 -8.7,-0.6 -12.9,-2.1 z"
   id="path6"
   inkscape:connector-curvature="0"
   style="fill:#00c58e" />
<path
   class="st1"
   d="m 41.874762,99 c -0.1,-0.2 -0.2,-0.4 -0.3,-0.6 -0.6,-1.3 -0.7,-2.7 -0.5,-4 H 8.5747623 L 56.974762,9.2 l 15.9,27.9 4.6,-8.2 -13.8,-24.4 c -0.4,-0.7 -2.7,-4.5 -6.8,-4.5 -1.8,0 -4.4,0.8 -6.6,4.5 L 1.2747623,90.7 c -0.39999998,0.7 -2.4,4.7 -0.39999998,8.1 0.89999998,1.6 2.89999998,3.5 7.19999998,3.5 H 49.174762 c -4.4,0.1 -6.4,-1.7 -7.3,-3.3 z"
   id="path8"
   inkscape:connector-curvature="0"
   style="fill:#00c58e" />
<path
   class="st2"
   d="m 136.27476,90.8 -40.299998,-71 c -0.4,-0.7 -2.7,-4.5 -6.8,-4.5 -1.8,0 -4.4,0.8 -6.6,4.5 l -5.2,9.1 4.6,8.2 7.2,-12.7 39.799998,69.9 h -15.2 c 0.2,1.2 0.1,2.3 -0.3,3.4 -0.1,0.2 -0.2,0.5 -0.3,0.7 l -0.1,0.3 c -2,3.5 -6.4,3.7 -7.3,3.7 h 23.7 c 0.9,0 5.3,-0.2 7.3,-3.7 1,-1.5 1.7,-4.2 -0.5,-7.9 z"
   id="path10"
   inkscape:connector-curvature="0"
   style="fill:#108775" />
<path
   class="st0"
   d="m 113.17476,98.8 0.1,-0.3 c 0.1,-0.2 0.2,-0.5 0.3,-0.7 0.4,-1.1 0.5,-2.3 0.3,-3.4 -0.2,-1.2 -0.7,-2.4 -1.3,-3.5 l -30.499998,-53.7 -4.7,-8.2 -4.6,8.2 -30.5,53.7 c -0.6,1.1 -1,2.3 -1.2,3.5 -0.2,1.4 -0.1,2.8 0.4,4 0.1,0.2 0.2,0.4 0.3,0.6 0.9,1.6 2.9,3.5 7.2,3.5 h 56.799998 c 1,-0.1 5.4,-0.3 7.4,-3.7 z M 77.474762,45.3 105.37476,94.4 H 49.574762 Z"
   id="path12"
   inkscape:connector-curvature="0"
   style="fill:#2f495e" />
</svg>